<svg width="49" height="38" fill="none" xmlns="http://www.w3.org/2000/svg"><path d="M0 37.18V26.953c0-3.018.568-6.197 1.705-9.535C2.84 14.08 4.42 10.884 6.445 7.83 8.47 4.776 10.85 2.166 13.583 0l7.884 5.646a61.791 61.791 0 00-5.54 9.908c-1.527 3.445-2.29 7.191-2.29 11.24V37.18H0zm27.166 0V26.953c0-3.018.568-6.197 1.705-9.535 1.136-3.338 2.716-6.534 4.74-9.588C35.636 4.776 38.016 2.166 40.75 0l7.884 5.646a61.791 61.791 0 00-5.54 9.908c-1.527 3.445-2.29 7.191-2.29 11.24V37.18H27.166z" fill="#fff"/></svg>